<svg version="1.1" role="img" viewBox="0 0 1024 1024" xmlns="http://www.w3.org/2000/svg"><path d="M842.1632 246.4512c6.9376-8.9344 13.056-17.0752 19.4816-24.96 2.9952-3.712 2.7392-6.528-0.1536-10.4192-27.9552-36.736-30.592-77.5168-14.5152-118.912 12.0832-31.1552 38.784-45.7472 71.424-48.8448 20.352-1.92 40.32 0.1536 58.8288 10.0608 24.32 13.0048 38.5024 32.8448 43.1104 60.2368 3.6608 21.8624 2.9696 43.1872-3.2 64.3584-10.9824 37.4528-37.888 56.8576-74.8032 61.7728-30.6432 4.096-61.696 4.608-92.5952 6.7072-2.3808 0.1536-4.8128 0-7.5776 0z" fill="#027AFF"/><path d="M766.3872 78.6688h-184.576L435.6608 411.904h-206.592V80.128H64v858.5472h165.12V576.9728h291.1488a129.0752 129.0752 0 0 0 117.0432-74.6496v436.352h165.12V576.9728a165.12 165.12 0 0 0-153.088-164.6848v-0.4352h-90.6752a168.1152 168.1152 0 0 0 99.1232-90.4448l108.5952-242.7392z" fill="#000000"/></svg>
