<svg width="124" height="124" viewBox="0 0 124 124" fill="none" xmlns="http://www.w3.org/2000/svg">
<rect width="124" height="124" rx="16" fill="url(#paint0_linear_47730_4348)"/>
<path d="M40.4367 61.9041C40.0675 62.0646 39.7143 62.2599 39.382 62.4874L39.2751 62.5749C39.2332 62.6017 39.1942 62.6326 39.1584 62.6672C32.135 68.1304 28.373 76.9376 30.3755 85.7642C31.5063 90.8258 34.3474 95.3429 38.4201 98.5541C42.4928 101.765 47.548 103.474 52.7337 103.393H53.526C56.926 103.248 60.2491 102.335 63.2467 100.725C66.2443 99.1136 68.8389 96.8457 70.8364 94.0905C72.8338 91.3353 74.1824 88.1641 74.7813 84.8141C75.3802 81.4641 75.2139 78.0221 74.2948 74.7455C73.3956 71.523 71.5243 68.5532 69.8864 65.6564C67.009 60.5691 64.1251 55.4834 61.2347 50.3993C60.3793 48.8975 59.5141 47.4053 58.6684 45.9034C57.5553 43.9203 55.8104 41.7623 55.718 39.4098C55.6257 37.0573 57.5407 34.7875 59.8835 34.3355C64.2968 33.4946 66.3674 38.2773 66.3771 38.2725C66.9127 39.553 67.9144 40.5824 69.1799 41.1528C70.4453 41.7231 71.8801 41.7917 73.1942 41.3449C74.5084 40.898 75.6038 39.9689 76.2592 38.7453C76.9147 37.5218 77.0811 36.095 76.7251 34.7535C75.6445 31.2245 73.3869 28.1727 70.3287 26.1067C67.6394 24.1831 64.3994 23.1821 61.0938 23.2536C58.7833 23.2663 56.5008 23.7604 54.3919 24.7044C52.283 25.6483 50.394 27.0215 48.8454 28.7362C47.0854 30.7029 45.8244 33.0641 45.1688 35.6205C44.5132 38.177 44.4822 40.8536 45.0785 43.4246C45.3167 44.3901 45.6421 45.3321 46.0506 46.2388C47.2122 48.8732 48.9183 51.2742 50.357 53.7677C52.1229 56.8298 53.8889 59.8935 55.6549 62.9588C57.4209 66.0242 59.203 69.1025 61.0014 72.1937C62.4596 74.7504 64.0489 76.9862 64.2093 80.058C64.2769 81.6966 64.0046 83.3314 63.4096 84.8596C62.8146 86.3878 61.9097 87.7763 60.7519 88.9377C59.5941 90.0992 58.2085 91.0084 56.6822 91.6082C55.1558 92.2081 53.5219 92.4855 51.8832 92.4231C46.1964 92.1655 41.9046 87.9514 41.0394 82.4396C39.9555 75.4794 45.375 71.6591 45.375 71.6591C46.517 70.9872 47.3767 69.9241 47.795 68.6669C48.2132 67.4096 48.1615 66.0434 47.6496 64.8213C47.1376 63.5992 46.2 62.6041 45.0105 62.0203C43.821 61.4366 42.4603 61.3038 41.1804 61.6465C40.9355 61.7154 40.6952 61.7998 40.461 61.8992" fill="white"/>
<path d="M98.7281 80.8677C98.7297 78.9037 98.5671 76.9429 98.2421 75.006C97.7365 71.9508 96.7885 68.9855 95.4278 66.2037C94.6113 64.5462 93.5809 62.8888 91.9672 61.9848C91.1592 61.5293 90.2466 61.292 89.319 61.2959C88.3915 61.2999 87.481 61.5451 86.6769 62.0075C85.8728 62.4698 85.2029 63.1334 84.7329 63.933C84.2628 64.7326 84.0089 65.6408 83.996 66.5682C83.9523 68.6145 85.0604 70.4566 85.8867 72.3425C87.2602 75.4856 87.8821 78.9056 87.7033 82.331C87.5244 85.7564 86.5496 89.093 84.8563 92.076C84.7524 92.2531 84.6599 92.4365 84.5792 92.6252C84.2351 93.4271 84.055 94.2898 84.0495 95.1624C84.0855 96.4139 84.5511 97.6149 85.368 98.5637C86.1849 99.5125 87.3034 100.151 88.5357 100.373C91.554 100.912 93.9503 98.6474 95.2188 96.1199C97.5505 91.375 98.7517 86.1546 98.7281 80.8677Z" fill="white"/>
<path d="M72.1424 44.9384C72.0423 44.9575 71.9434 44.9819 71.8459 45.0113C71.647 45.0668 71.4679 45.1775 71.3293 45.3306C71.1907 45.4836 71.0983 45.6727 71.0627 45.8761C71.0271 46.0795 71.0498 46.2888 71.1282 46.4798C71.2066 46.6708 71.3374 46.8358 71.5056 46.9555C73.9779 48.8251 76.0629 51.1577 77.6444 53.8234C78.0741 54.5556 78.4478 55.3192 78.7623 56.1078C79.0248 56.7883 79.3748 57.6777 80.2594 57.6291C80.9496 57.5951 81.2315 57.007 81.421 56.4189C82.3228 53.3607 82.6037 50.153 82.2473 46.9847C81.9933 45.2585 81.5966 43.5564 81.0613 41.8957C80.9803 41.4936 80.7922 41.1209 80.517 40.8167C80.3416 40.6576 80.1193 40.5598 79.8835 40.5379C79.6477 40.516 79.4112 40.5712 79.2095 40.6952C79.0183 40.8502 78.854 41.0358 78.7234 41.2444C77.9133 42.3344 76.8728 43.2322 75.6759 43.874C75.0724 44.1949 74.4371 44.4523 73.7803 44.6419C73.2311 44.8023 72.6722 44.8266 72.1424 44.9384Z" fill="white"/>
<defs>
<linearGradient id="paint0_linear_47730_4348" x1="62" y1="0" x2="62" y2="124" gradientUnits="userSpaceOnUse">
<stop stop-color="#99A559"/>
<stop offset="1" stop-color="#61683C"/>
</linearGradient>
</defs>
</svg>
