<svg xmlns="http://www.w3.org/2000/svg" width="28" height="28" viewBox="0 0 28 28" fill="none">
<rect width="28" height="28" rx="4" fill="black"/>
<path d="M9.13112 13.9783C9.04773 14.0146 8.96798 14.0587 8.89295 14.1101L8.86881 14.1298C8.85936 14.1359 8.85054 14.1429 8.84247 14.1507C7.25654 15.3843 6.40705 17.373 6.85924 19.3661C7.11457 20.5091 7.75612 21.529 8.67576 22.2541C9.59539 22.9793 10.7369 23.3652 11.9079 23.3468H12.0868C12.8545 23.314 13.6049 23.108 14.2818 22.7442C14.9586 22.3805 15.5445 21.8684 15.9956 21.2462C16.4466 20.6241 16.7511 19.908 16.8864 19.1516C17.0216 18.3951 16.984 17.6179 16.7765 16.878C16.5735 16.1504 16.1509 15.4798 15.781 14.8256C15.1313 13.6769 14.4801 12.5285 13.8274 11.3805C13.6343 11.0414 13.4389 10.7044 13.2479 10.3653C12.9966 9.91749 12.6026 9.43019 12.5817 8.89899C12.5609 8.36778 12.9933 7.85524 13.5223 7.75317C14.5189 7.5633 14.9864 8.64326 14.9886 8.64217C15.1096 8.93132 15.3358 9.16378 15.6215 9.29256C15.9073 9.42134 16.2312 9.43684 16.528 9.33593C16.8247 9.23502 17.0721 9.02523 17.2201 8.74894C17.3681 8.47266 17.4057 8.15049 17.3253 7.84756C17.0813 7.0507 16.5715 6.36157 15.8809 5.89506C15.2736 5.4607 14.5421 5.23468 13.7956 5.25081C13.2739 5.25368 12.7585 5.36525 12.2823 5.57841C11.8061 5.79156 11.3795 6.10163 11.0298 6.48882C10.6324 6.93291 10.3477 7.46609 10.1997 8.04335C10.0516 8.62061 10.0446 9.22501 10.1793 9.80555C10.233 10.0236 10.3065 10.2363 10.3988 10.441C10.6611 11.0359 11.0463 11.5781 11.3712 12.1411C11.7699 12.8325 12.1687 13.5243 12.5675 14.2165C12.9662 14.9087 13.3687 15.6038 13.7748 16.3018C14.104 16.8791 14.4629 17.384 14.4991 18.0776C14.5144 18.4476 14.4529 18.8168 14.3185 19.1618C14.1842 19.5069 13.9799 19.8204 13.7184 20.0827C13.457 20.345 13.1441 20.5503 12.7994 20.6857C12.4548 20.8212 12.0858 20.8838 11.7158 20.8697C10.4317 20.8116 9.46257 19.86 9.26721 18.6154C9.02246 17.0437 10.2462 16.1811 10.2462 16.1811C10.5041 16.0294 10.6982 15.7893 10.7927 15.5054C10.8871 15.2215 10.8754 14.913 10.7598 14.6371C10.6442 14.3611 10.4325 14.1364 10.1639 14.0046C9.89532 13.8728 9.58805 13.8428 9.29904 13.9202C9.24374 13.9357 9.18949 13.9548 9.13661 13.9772" fill="white"/>
<path d="M22.2937 18.2603C22.294 17.8168 22.2573 17.374 22.1839 16.9366C22.0698 16.2468 21.8557 15.5772 21.5485 14.949C21.3641 14.5748 21.1314 14.2005 20.767 13.9964C20.5846 13.8935 20.3785 13.8399 20.1691 13.8408C19.9596 13.8417 19.754 13.8971 19.5724 14.0015C19.3909 14.1059 19.2396 14.2557 19.1335 14.4363C19.0273 14.6169 18.97 14.8219 18.9671 15.0313C18.9572 15.4934 19.2074 15.9094 19.394 16.3352C19.7041 17.0449 19.8446 17.8172 19.8042 18.5907C19.7638 19.3642 19.5437 20.1176 19.1613 20.7912C19.1379 20.8311 19.117 20.8726 19.0988 20.9152C19.0211 21.0963 18.9804 21.2911 18.9792 21.4881C18.9873 21.7707 19.0924 22.0419 19.2769 22.2561C19.4614 22.4704 19.7139 22.6146 19.9922 22.6646C20.6737 22.7865 21.2148 22.275 21.5013 21.7043C22.0278 20.6329 22.299 19.4541 22.2937 18.2603Z" fill="white"/>
<path d="M16.2905 10.1476C16.2679 10.1519 16.2455 10.1574 16.2235 10.164C16.1786 10.1766 16.1382 10.2015 16.1069 10.2361C16.0756 10.2707 16.0547 10.3134 16.0467 10.3593C16.0386 10.4052 16.0438 10.4525 16.0615 10.4956C16.0792 10.5387 16.1087 10.576 16.1467 10.603C16.7049 11.0252 17.1757 11.5519 17.5329 12.1538C17.6299 12.3192 17.7143 12.4916 17.7853 12.6697C17.8446 12.8233 17.9236 13.0242 18.1233 13.0132C18.2792 13.0055 18.3428 12.8727 18.3856 12.7399C18.5893 12.0494 18.6527 11.3251 18.5722 10.6096C18.5149 10.2198 18.4253 9.83548 18.3044 9.4605C18.2861 9.36971 18.2436 9.28553 18.1815 9.21685C18.1419 9.18093 18.0917 9.15884 18.0385 9.15389C17.9852 9.14894 17.9318 9.16141 17.8863 9.18941C17.8431 9.22442 17.806 9.26632 17.7765 9.31344C17.5936 9.55955 17.3586 9.76228 17.0884 9.9072C16.9521 9.97967 16.8086 10.0378 16.6603 10.0806C16.5363 10.1168 16.4101 10.1223 16.2905 10.1476Z" fill="white"/>
</svg>