<svg xmlns="http://www.w3.org/2000/svg" width="30" height="35" viewBox="0 0 30 35" fill="none"><path d="M4.61475 16.8332C4.45395 16.9031 4.30015 16.9882 4.15545 17.0872L4.10885 17.1253C4.09065 17.137 4.07365 17.1505 4.05805 17.1656C0.999449 19.5447 -0.638751 23.3801 0.233249 27.2239C0.725749 29.4282 1.96295 31.3953 3.73655 32.7937C5.51015 34.1921 7.71155 34.9364 9.96995 34.9011H10.3149C11.7955 34.8377 13.2427 34.4404 14.5481 33.7389C15.8535 33.0374 16.9834 32.0497 17.8533 30.8499C18.7231 29.65 19.3104 28.269 19.5712 26.8102C19.832 25.3513 19.7596 23.8524 19.3594 22.4255C18.9678 21.0221 18.1529 19.7288 17.4395 18.4673C16.1865 16.2519 14.9306 14.0371 13.6719 11.8231C13.2994 11.1691 12.9226 10.5192 12.5543 9.86516C12.0696 9.00156 11.3097 8.06176 11.2695 7.03726C11.2293 6.01286 12.0632 5.02436 13.0835 4.82746C15.0054 4.46136 15.9071 6.54416 15.9113 6.54196C16.1446 7.09966 16.5808 7.54796 17.1319 7.79636C17.683 8.04466 18.3078 8.07455 18.8801 7.87995C19.4524 7.68535 19.9294 7.28075 20.2148 6.74795C20.5003 6.21505 20.5728 5.59376 20.4177 5.00956C19.9471 3.47276 18.964 2.14366 17.6322 1.24396C16.461 0.406356 15.0501 -0.0295442 13.6105 0.00155575C12.6043 0.00705575 11.6103 0.222255 10.692 0.633355C9.77365 1.04436 8.95095 1.64236 8.27655 2.38906C7.51015 3.24556 6.96105 4.27386 6.67555 5.38716C6.39005 6.50046 6.37655 7.66605 6.63615 8.78566C6.73985 9.20616 6.88155 9.61636 7.05945 10.0112C7.56535 11.1585 8.30835 12.2041 8.93485 13.2899C9.70395 14.6234 10.4729 15.9576 11.242 17.2926C12.011 18.6275 12.7871 19.968 13.5703 21.3142C14.2053 22.4276 14.8974 23.4012 14.9673 24.739C14.9967 25.4525 14.8781 26.1645 14.619 26.83C14.3599 27.4955 13.9658 28.1001 13.4616 28.6059C12.9574 29.1117 12.354 29.5077 11.6893 29.7689C11.0246 30.0301 10.3131 30.1509 9.59945 30.1237C7.12295 30.0116 5.25395 28.1764 4.87725 25.7761C4.40525 22.7451 6.76525 21.0814 6.76525 21.0814C7.26265 20.7888 7.63705 20.3258 7.81915 19.7783C8.00125 19.2308 7.97875 18.6358 7.75585 18.1036C7.53285 17.5714 7.12455 17.1381 6.60655 16.8838C6.08855 16.6296 5.49595 16.5718 4.93855 16.7211C4.83195 16.7511 4.72735 16.7878 4.62535 16.8311" fill="black"/><path d="M30.0021 25.0916C30.0028 24.2363 29.932 23.3824 29.7905 22.5389C29.5703 21.2084 29.1574 19.9171 28.5649 18.7056C28.2093 17.9838 27.7606 17.2621 27.0578 16.8684C26.706 16.67 26.3085 16.5666 25.9046 16.5684C25.5007 16.5701 25.1042 16.6769 24.754 16.8782C24.4039 17.0796 24.1121 17.3686 23.9074 17.7168C23.7027 18.065 23.5921 18.4605 23.5865 18.8644C23.5675 19.7555 24.0501 20.5577 24.4099 21.379C25.008 22.7477 25.2789 24.2371 25.201 25.7288C25.1231 27.2205 24.6986 28.6736 23.9612 29.9726C23.9159 30.0497 23.8756 30.1296 23.8405 30.2118C23.6906 30.561 23.6122 30.9367 23.6098 31.3167C23.6255 31.8617 23.8283 32.3847 24.184 32.7979C24.5398 33.2111 25.0269 33.4893 25.5635 33.5857C26.8779 33.8207 27.9214 32.8343 28.4739 31.7337C29.4893 29.6673 30.0124 27.3939 30.0021 25.0916Z" fill="black"/><path d="M18.4285 9.44577C18.385 9.45407 18.3419 9.46467 18.2994 9.47747C18.2128 9.50167 18.1348 9.54987 18.0745 9.61647C18.0141 9.68317 17.9738 9.76547 17.9583 9.85407C17.9428 9.94267 17.9527 10.0338 17.9869 10.117C18.021 10.2002 18.078 10.272 18.1512 10.3242C19.2279 11.1383 20.1359 12.1541 20.8246 13.315C21.0117 13.6339 21.1745 13.9664 21.3114 14.3098C21.4257 14.6062 21.5781 14.9935 21.9634 14.9724C22.2639 14.9575 22.3867 14.7014 22.4692 14.4453C22.8619 13.1135 22.9843 11.7166 22.8291 10.3369C22.7185 9.58507 22.5457 8.84387 22.3126 8.12067C22.2773 7.94557 22.1954 7.78327 22.0755 7.65077C21.9991 7.58147 21.9023 7.53887 21.7997 7.52937C21.697 7.51987 21.594 7.54387 21.5061 7.59787C21.4229 7.66537 21.3514 7.74617 21.2945 7.83707C20.9417 8.31167 20.4885 8.70268 19.9673 8.98218C19.7045 9.12198 19.4278 9.23407 19.1418 9.31657C18.9027 9.38647 18.6592 9.39707 18.4285 9.44577Z" fill="#C21E31"/></svg>