<svg width="231" height="47" viewBox="0 0 231 47" fill="none" xmlns="http://www.w3.org/2000/svg">
<path d="M6.20627 22.4992C5.99001 22.5926 5.78317 22.7064 5.58857 22.8387L5.5259 22.8896C5.50142 22.9053 5.47856 22.9233 5.45758 22.9435C1.34414 26.1234 -0.859042 31.2498 0.313691 36.3874C0.976043 39.3337 2.63992 41.9629 5.0252 43.832C7.41047 45.7011 10.3711 46.696 13.4084 46.6488H13.8723C15.8636 46.564 17.8099 46.033 19.5655 45.0954C21.3211 44.1578 22.8407 42.8376 24.0106 41.2339C25.1803 39.6302 25.9702 37.7843 26.3209 35.8345C26.6717 33.8845 26.5743 31.8811 26.0361 29.9739C25.5094 28.0981 24.4135 26.3695 23.4541 24.6834C21.7689 21.7222 20.0799 18.7619 18.3871 15.8027C17.8861 14.9286 17.3794 14.0599 16.8841 13.1858C16.2322 12.0315 15.2102 10.7754 15.1562 9.406C15.1021 8.03679 16.2236 6.71556 17.5958 6.45238C20.1805 5.96305 21.3932 8.74692 21.3988 8.74398C21.7126 9.48941 22.2992 10.0886 23.0404 10.4206C23.7815 10.7525 24.6218 10.7925 25.3915 10.5324C26.1612 10.2723 26.8027 9.73146 27.1865 9.01932C27.5704 8.30705 27.668 7.47662 27.4594 6.69578C26.8265 4.64169 25.5043 2.86521 23.7132 1.66267C22.1381 0.543136 20.2406 -0.0394889 18.3045 0.00207942C16.9513 0.00943073 15.6145 0.297067 14.3795 0.846544C13.1444 1.39589 12.0379 2.19517 11.1309 3.19321C10.1002 4.33801 9.36175 5.71244 8.97779 7.20048C8.59383 8.68851 8.57567 10.2465 8.9248 11.7429C9.06427 12.305 9.25484 12.8532 9.49409 13.3809C10.1745 14.9144 11.1737 16.312 12.0163 17.7632C13.0506 19.5456 14.0848 21.3289 15.1192 23.1132C16.1534 24.8975 17.1971 26.6892 18.2505 28.4885C19.1045 29.9767 20.0352 31.278 20.1292 33.0661C20.1688 34.0198 20.0093 34.9714 19.6608 35.861C19.3124 36.7505 18.7824 37.5586 18.1043 38.2346C17.4262 38.9107 16.6147 39.44 15.7207 39.7891C14.8268 40.1382 13.8699 40.2997 12.9101 40.2633C9.57949 40.1135 7.06591 37.6605 6.5593 34.4523C5.92452 30.4011 9.09843 28.1774 9.09843 28.1774C9.76737 27.7863 10.2709 27.1674 10.5158 26.4356C10.7607 25.7038 10.7304 24.9086 10.4307 24.1972C10.1308 23.4859 9.58164 22.9067 8.885 22.5668C8.18835 22.2271 7.39138 22.1498 6.64174 22.3494C6.49838 22.3895 6.3577 22.4385 6.22053 22.4964" fill="black"/>
<path d="M40.349 33.5374C40.35 32.3942 40.2548 31.2529 40.0645 30.1255C39.7683 28.3471 39.213 26.6212 38.4162 25.0019C37.938 24.0371 37.3345 23.0725 36.3893 22.5463C35.9162 22.2811 35.3816 22.1429 34.8384 22.1453C34.2952 22.1476 33.762 22.2903 33.291 22.5594C32.8202 22.8286 32.4277 23.2148 32.1524 23.6802C31.8771 24.1457 31.7284 24.6743 31.7209 25.2141C31.6953 26.4052 32.3443 27.4774 32.8282 28.5752C33.6326 30.4046 33.9969 32.3953 33.8922 34.3891C33.7874 36.3829 33.2165 38.3251 32.2248 40.0614C32.1639 40.1644 32.1097 40.2712 32.0625 40.3811C31.8609 40.8478 31.7554 41.35 31.7522 41.8579C31.7733 42.5863 32.046 43.2854 32.5244 43.8377C33.0029 44.3899 33.658 44.7618 34.3797 44.8906C36.1474 45.2047 37.5508 43.8863 38.2938 42.4153C39.6594 39.6533 40.3629 36.6147 40.349 33.5374Z" fill="black"/>
<path d="M24.784 12.6245C24.7255 12.6356 24.6675 12.6497 24.6104 12.6668C24.4939 12.6992 24.389 12.7636 24.3079 12.8526C24.2267 12.9418 24.1725 13.0518 24.1516 13.1702C24.1308 13.2886 24.1441 13.4104 24.1901 13.5216C24.236 13.6328 24.3126 13.7288 24.4111 13.7985C25.8591 14.8867 27.0802 16.2444 28.0065 17.7961C28.2581 18.2223 28.477 18.6667 28.6611 19.1257C28.8149 19.5219 29.0198 20.0395 29.538 20.0113C29.9421 19.9914 30.1073 19.6491 30.2182 19.3068C30.7464 17.5267 30.911 15.6596 30.7023 13.8155C30.5535 12.8107 30.3211 11.82 30.0076 10.8533C29.9602 10.6193 29.85 10.4024 29.6888 10.2253C29.586 10.1327 29.4558 10.0757 29.3178 10.063C29.1797 10.0503 29.0412 10.0824 28.923 10.1546C28.8111 10.2448 28.7149 10.3528 28.6384 10.4743C28.1639 11.1086 27.5544 11.6313 26.8535 12.0048C26.5001 12.1917 26.1279 12.3415 25.7433 12.4518C25.4217 12.5452 25.0943 12.5594 24.784 12.6245Z" fill="#C21E31"/>
<path d="M77.0992 30.4373C77.0992 32.5718 76.5428 34.3648 75.4298 35.8163C74.3455 37.2393 72.9185 38.2924 71.1493 38.9754C69.4085 39.6585 67.5395 40 65.5419 40C62.6311 40 60.0058 39.3311 57.6657 37.9935C55.3257 36.6274 53.7705 34.7063 53 32.2303L58.051 29.37C58.7359 30.9637 59.7346 32.2018 61.0473 33.0841C62.3601 33.9664 63.9295 34.4075 65.7559 34.4075C67.2399 34.4075 68.4098 34.1087 69.2659 33.511C70.1506 32.9133 70.5929 32.0453 70.5929 30.9069C70.5929 29.9962 70.2932 29.2419 69.6939 28.6442C69.1233 28.0466 68.3956 27.577 67.5109 27.2354C66.6548 26.8939 65.4705 26.4955 63.9581 26.0401C61.932 25.4424 60.2769 24.8589 58.9927 24.2898C57.7086 23.6921 56.6098 22.8098 55.6967 21.643C54.7836 20.4761 54.327 18.9392 54.327 17.0323C54.327 15.0117 54.8548 13.3041 55.9107 11.9094C56.9951 10.4865 58.4077 9.43338 60.1484 8.75032C61.9177 8.03876 63.8154 7.68305 65.8415 7.68305C68.6096 7.68305 70.9781 8.30924 72.9471 9.56145C74.9162 10.8137 76.1861 12.5071 76.7568 14.6417L71.7058 17.5019C71.1921 16.1643 70.4216 15.1254 69.3943 14.3855C68.367 13.6171 67.0828 13.2329 65.5419 13.2329C64.1435 13.2329 63.0022 13.5602 62.1175 14.2147C61.2614 14.8409 60.8333 15.6804 60.8333 16.7335C60.8333 17.5305 61.1044 18.1992 61.6466 18.74C62.1889 19.2523 62.8737 19.6792 63.7012 20.0207C64.5573 20.3337 65.6989 20.7038 67.1256 21.1307C69.1803 21.7283 70.8783 22.3402 72.2194 22.9664C73.5606 23.564 74.7021 24.4747 75.6439 25.6986C76.6141 26.8939 77.0992 28.4735 77.0992 30.4373ZM97.4229 17.3739L102.046 31.163L106.412 17.3739H112.191L104.1 39.445H99.8628L94.8118 25.9974L89.9748 39.445H85.6943L77.3045 17.3739H83.4256L88.0914 31.3338L92.4575 17.3739H97.4229ZM122.502 16.8189C125.498 16.8189 127.838 17.6727 129.522 19.3803C131.206 21.0595 132.047 23.4645 132.047 26.5951V39.4877H127.039C127.011 39.2601 126.969 38.89 126.91 38.3777C126.883 37.8369 126.825 37.3673 126.739 36.969C126.083 37.9935 125.227 38.762 124.171 39.2743C123.144 39.758 121.889 40 120.404 40C118.863 40 117.451 39.7297 116.167 39.1889C114.911 38.6481 113.913 37.8655 113.171 36.8409C112.429 35.7878 112.058 34.5498 112.058 33.1268C112.058 31.6468 112.472 30.3661 113.299 29.2846C114.155 28.1746 115.297 27.3208 116.724 26.7232C118.15 26.1255 119.719 25.8267 121.431 25.8267C122.972 25.8267 124.556 26.0828 126.183 26.5951C126.097 23.3221 124.7 21.6856 121.988 21.6856C119.82 21.6856 118.236 22.6534 117.237 24.5886L113 22.1552C113.799 20.5045 115.026 19.2096 116.681 18.2704C118.336 17.3027 120.276 16.8189 122.502 16.8189ZM126.183 30.5226C124.756 30.1811 123.515 30.0104 122.459 30.0104C121.061 30.0104 119.976 30.2665 119.206 30.7788C118.435 31.2626 118.051 31.9599 118.051 32.8706C118.051 33.6959 118.35 34.3363 118.949 34.7917C119.577 35.2471 120.377 35.4748 121.346 35.4748C122.63 35.4748 123.758 35.1191 124.727 34.4075C125.698 33.6676 126.183 32.6572 126.183 31.3765V30.5226ZM149.146 16.8189C151.6 16.8189 153.541 17.63 154.968 19.2523C156.394 20.846 157.108 23.1798 157.108 26.2536V39.4877H151.158V28.1746C151.158 24.1332 149.817 22.1125 147.134 22.1125C145.708 22.1125 144.552 22.6675 143.667 23.7775C142.811 24.8589 142.383 26.3958 142.383 28.3881V39.4877H136.433V17.3739H141.655C141.797 19.11 141.926 20.291 142.041 20.9172C143.467 18.185 145.836 16.8189 149.146 16.8189ZM161.925 8.23803H168.132V33.9379H182.386V39.4877H161.925V8.23803ZM194.425 16.8189C197.421 16.8189 199.762 17.6727 201.445 19.3803C203.128 21.0595 203.97 23.4645 203.97 26.5951V39.4877H198.962C198.933 39.2601 198.89 38.89 198.834 38.3777C198.805 37.8369 198.748 37.3673 198.662 36.969C198.007 37.9935 197.15 38.762 196.094 39.2743C195.067 39.758 193.812 40 192.327 40C190.786 40 189.374 39.7297 188.09 39.1889C186.834 38.6481 185.835 37.8655 185.093 36.8409C184.352 35.7878 183.98 34.5498 183.98 33.1268C183.98 31.6468 184.395 30.3661 185.222 29.2846C186.078 28.1746 187.22 27.3208 188.646 26.7232C190.072 26.1255 191.642 25.8267 193.355 25.8267C194.896 25.8267 196.479 26.0828 198.106 26.5951C198.02 23.3221 196.621 21.6856 193.911 21.6856C191.742 21.6856 190.158 22.6534 189.16 24.5886L184.922 22.1552C185.721 20.5045 186.948 19.2096 188.603 18.2704C190.259 17.3027 192.199 16.8189 194.425 16.8189ZM198.106 30.5226C196.68 30.1811 195.438 30.0104 194.382 30.0104C192.983 30.0104 191.899 30.2665 191.129 30.7788C190.358 31.2626 189.973 31.9599 189.973 32.8706C189.973 33.6959 190.273 34.3363 190.872 34.7917C191.5 35.2471 192.298 35.4748 193.269 35.4748C194.553 35.4748 195.68 35.1191 196.651 34.4075C197.621 33.6676 198.106 32.6572 198.106 31.3765V30.5226ZM221.026 16.8189C222.824 16.8189 224.478 17.2743 225.992 18.185C227.533 19.0957 228.745 20.4334 229.63 22.1979C230.543 23.9624 231 26.0401 231 28.4308C231 30.8215 230.543 32.8991 229.63 34.6636C228.745 36.3998 227.533 37.7232 225.992 38.6339C224.478 39.5446 222.824 40 221.026 40C219.542 40 218.172 39.687 216.917 39.0608C215.69 38.4346 214.691 37.4671 213.921 36.1578C213.721 37.7801 213.606 38.89 213.578 39.4877H208.356V7H214.306V20.1488C215.104 19.0388 216.075 18.2135 217.217 17.6727C218.386 17.1035 219.657 16.8189 221.026 16.8189ZM219.657 34.9198C221.198 34.9198 222.439 34.3363 223.381 33.1695C224.35 32.0026 224.836 30.4231 224.836 28.4308C224.836 26.4385 224.365 24.8875 223.424 23.7775C222.482 22.6675 221.225 22.1125 219.657 22.1125C218.143 22.1125 216.874 22.639 215.847 23.6921C214.82 24.7167 214.306 26.2963 214.306 28.4308C214.306 30.5653 214.82 32.1876 215.847 33.2975C216.902 34.379 218.172 34.9198 219.657 34.9198Z" fill="black"/>
</svg>