<svg width="117" height="20" viewBox="0 0 117 20" fill="none" xmlns="http://www.w3.org/2000/svg">
<g clip-path="url(#clip0_60972_9261)">
<mask id="mask0_60972_9261" style="mask-type:luminance" maskUnits="userSpaceOnUse" x="0" y="0" width="117" height="20">
<path d="M114 0H3C1.34315 0 0 1.34315 0 3V17C0 18.6569 1.34315 20 3 20H114C115.657 20 117 18.6569 117 17V3C117 1.34315 115.657 0 114 0Z" fill="white"/>
</mask>
<g mask="url(#mask0_60972_9261)">
<path d="M0 0H30V20H0V0Z" fill="#555555"/>
<path d="M30 0H117V20H30V0Z" fill="#007EC6"/>
<path d="M0 0H117V20H0V0Z" fill="url(#paint0_linear_60972_9261)"/>
</g>
<path d="M7.12568 13.7474C5.03018 11.9584 5.07889 8.18537 7.12568 6.39551C7.86582 6.90151 8.3396 7.70136 9.10018 8.18536C8.19503 9.44251 8.19975 10.7004 9.09703 11.9592C8.3396 12.4439 7.86503 13.2414 7.12568 13.7474Z" fill="#E8710A"/>
<path d="M15.2023 14.0185C13.8139 12.7354 13.2498 11.1443 13.5381 9.28848C13.8925 7.00205 15.2188 5.44398 17.4243 4.82719C19.4396 4.26305 21.3246 4.65669 22.8284 6.25641C22.1338 6.84019 21.4872 7.47191 20.916 8.17826C20.0981 7.50726 19.1796 7.19926 18.1432 7.53005C16.2543 8.13269 15.7499 10.0766 16.9693 11.9646C16.78 12.1807 16.582 12.3897 16.4028 12.6136C16.0178 13.0953 15.4018 13.3789 15.2023 14.0185Z" fill="#F9AB00"/>
<path d="M20.9149 8.17869C21.4861 7.47234 22.1327 6.84062 22.8273 6.25684C24.9511 8.44348 24.9495 11.7812 22.8234 13.9286C20.7428 16.0296 17.3737 16.0696 15.2012 14.0189C15.4007 13.3793 16.0167 13.0957 16.4017 12.6141C16.5809 12.3901 16.7789 12.1803 16.9682 11.9651C17.7956 12.6848 18.7392 12.9613 19.7968 12.6172C21.6794 12.0043 22.1893 9.94262 20.9149 8.17869Z" fill="#E8710A"/>
<path d="M9.0995 8.18567C8.33893 7.70167 7.86514 6.90182 7.125 6.39582C8.86064 4.51167 11.6201 4.08424 13.7847 5.33117C14.2208 5.5826 14.3496 5.80732 14.0086 6.21746C13.8853 6.36517 13.8059 6.54903 13.7014 6.71324C13.4665 7.08253 13.3015 7.5516 12.9715 7.79046C12.5904 8.06624 12.2683 7.52253 11.8739 7.44317C10.8147 7.23024 9.90014 7.47539 9.0995 8.18567Z" fill="#F9AB00"/>
<path d="M7.125 13.7481C7.86436 13.2421 8.33893 12.4446 9.09636 11.959C10.1751 12.8641 11.3356 13.0849 12.5928 12.3511C12.8536 12.1986 12.988 12.2819 13.1216 12.5003C13.4249 12.9993 13.7132 13.51 14.0495 13.9853C14.3166 14.3625 14.2239 14.5471 13.8507 14.7758C11.7316 16.0738 8.87557 15.6479 7.125 13.7481Z" fill="#F9AB00"/>
<path d="M43.3955 10C43.3955 10.8724 43.2301 11.6146 42.8994 12.2266C42.5713 12.8385 42.1234 13.306 41.5557 13.6289C40.9906 13.9492 40.3551 14.1094 39.6494 14.1094C38.9385 14.1094 38.3005 13.9479 37.7354 13.625C37.1702 13.3021 36.7236 12.8346 36.3955 12.2227C36.0674 11.6107 35.9033 10.8698 35.9033 10C35.9033 9.1276 36.0674 8.38542 36.3955 7.77344C36.7236 7.16146 37.1702 6.69531 37.7354 6.375C38.3005 6.05208 38.9385 5.89062 39.6494 5.89062C40.3551 5.89062 40.9906 6.05208 41.5557 6.375C42.1234 6.69531 42.5713 7.16146 42.8994 7.77344C43.2301 8.38542 43.3955 9.1276 43.3955 10ZM41.6807 10C41.6807 9.4349 41.596 8.95833 41.4268 8.57031C41.2601 8.18229 41.0244 7.88802 40.7197 7.6875C40.415 7.48698 40.0583 7.38672 39.6494 7.38672C39.2406 7.38672 38.8838 7.48698 38.5791 7.6875C38.2744 7.88802 38.0374 8.18229 37.8682 8.57031C37.7015 8.95833 37.6182 9.4349 37.6182 10C37.6182 10.5651 37.7015 11.0417 37.8682 11.4297C38.0374 11.8177 38.2744 12.112 38.5791 12.3125C38.8838 12.513 39.2406 12.6133 39.6494 12.6133C40.0583 12.6133 40.415 12.513 40.7197 12.3125C41.0244 12.112 41.2601 11.8177 41.4268 11.4297C41.596 11.0417 41.6807 10.5651 41.6807 10ZM44.6172 16.25V8H46.2578V9.00781H46.332C46.4049 8.84635 46.5104 8.68229 46.6484 8.51562C46.7891 8.34635 46.9714 8.20573 47.1953 8.09375C47.4219 7.97917 47.7031 7.92188 48.0391 7.92188C48.4766 7.92188 48.8802 8.03646 49.25 8.26563C49.6198 8.49219 49.9154 8.83464 50.1367 9.29297C50.3581 9.7487 50.4688 10.3203 50.4688 11.0078C50.4688 11.6771 50.3607 12.2422 50.1445 12.7031C49.931 13.1615 49.6393 13.5091 49.2695 13.7461C48.9023 13.9805 48.4909 14.0977 48.0352 14.0977C47.7122 14.0977 47.4375 14.0443 47.2109 13.9375C46.987 13.8307 46.8034 13.6966 46.6602 13.5352C46.5169 13.3711 46.4076 13.2057 46.332 13.0391H46.2813V16.25H44.6172ZM46.2461 11C46.2461 11.3568 46.2956 11.668 46.3945 11.9336C46.4935 12.1992 46.6367 12.4062 46.8242 12.5547C47.0117 12.7005 47.2396 12.7734 47.5078 12.7734C47.7786 12.7734 48.0078 12.6992 48.1953 12.5508C48.3828 12.3997 48.5247 12.1914 48.6211 11.9258C48.7201 11.6576 48.7695 11.349 48.7695 11C48.7695 10.6536 48.7214 10.349 48.625 10.0859C48.5286 9.82292 48.3867 9.61719 48.1992 9.46875C48.0117 9.32031 47.7813 9.24609 47.5078 9.24609C47.237 9.24609 47.0078 9.31771 46.8203 9.46094C46.6354 9.60417 46.4935 9.80729 46.3945 10.0703C46.2956 10.3333 46.2461 10.6432 46.2461 11ZM54.3125 14.1172C53.6953 14.1172 53.1641 13.9922 52.7188 13.7422C52.276 13.4896 51.9349 13.1328 51.6953 12.6719C51.4557 12.2083 51.3359 11.6602 51.3359 11.0273C51.3359 10.4102 51.4557 9.86849 51.6953 9.40234C51.9349 8.9362 52.2721 8.57292 52.707 8.3125C53.1445 8.05208 53.6576 7.92188 54.2461 7.92188C54.6419 7.92188 55.0104 7.98568 55.3516 8.11328C55.6953 8.23828 55.9948 8.42708 56.25 8.67969C56.5078 8.93229 56.7083 9.25 56.8516 9.63281C56.9948 10.013 57.0664 10.4583 57.0664 10.9687V11.4258H52V10.3945H55.5C55.5 10.1549 55.4479 9.94271 55.3438 9.75781C55.2396 9.57292 55.0951 9.42839 54.9102 9.32422C54.7279 9.21745 54.5156 9.16406 54.2734 9.16406C54.0208 9.16406 53.7969 9.22266 53.6016 9.33984C53.4089 9.45443 53.2578 9.60937 53.1484 9.80469C53.0391 9.9974 52.9831 10.2122 52.9805 10.4492V11.4297C52.9805 11.7266 53.0352 11.9831 53.1445 12.1992C53.2565 12.4154 53.4141 12.582 53.6172 12.6992C53.8203 12.8164 54.0612 12.875 54.3398 12.875C54.5247 12.875 54.694 12.849 54.8477 12.7969C55.0013 12.7448 55.1328 12.6667 55.2422 12.5625C55.3516 12.4583 55.4349 12.3307 55.4922 12.1797L57.0313 12.2812C56.9531 12.651 56.793 12.974 56.5508 13.25C56.3112 13.5234 56.0013 13.737 55.6211 13.8906C55.2435 14.0417 54.8073 14.1172 54.3125 14.1172ZM59.8164 10.5313V14H58.1523V8H59.7383V9.05859H59.8086C59.9414 8.70964 60.1641 8.43359 60.4766 8.23047C60.7891 8.02474 61.168 7.92188 61.6133 7.92188C62.0299 7.92188 62.3932 8.01302 62.7031 8.19531C63.013 8.3776 63.2539 8.63802 63.4258 8.97656C63.5977 9.3125 63.6836 9.71354 63.6836 10.1797V14H62.0195V10.4766C62.0221 10.1094 61.9284 9.82292 61.7383 9.61719C61.5482 9.40885 61.2865 9.30469 60.9531 9.30469C60.7292 9.30469 60.5313 9.35286 60.3594 9.44922C60.1901 9.54557 60.0573 9.6862 59.9609 9.87109C59.8672 10.0534 59.819 10.2734 59.8164 10.5313ZM67.541 14V8H69.2051V14H67.541ZM68.377 7.22656C68.1296 7.22656 67.9173 7.14453 67.7402 6.98047C67.5658 6.8138 67.4785 6.61458 67.4785 6.38281C67.4785 6.15365 67.5658 5.95703 67.7402 5.79297C67.9173 5.6263 68.1296 5.54297 68.377 5.54297C68.6243 5.54297 68.8353 5.6263 69.0098 5.79297C69.1868 5.95703 69.2754 6.15365 69.2754 6.38281C69.2754 6.61458 69.1868 6.8138 69.0098 6.98047C68.8353 7.14453 68.6243 7.22656 68.377 7.22656ZM72.2021 10.5313V14H70.5381V8H72.124V9.05859H72.1943C72.3271 8.70964 72.5498 8.43359 72.8623 8.23047C73.1748 8.02474 73.5537 7.92188 73.999 7.92188C74.4157 7.92188 74.779 8.01302 75.0889 8.19531C75.3988 8.3776 75.6396 8.63802 75.8115 8.97656C75.9834 9.3125 76.0693 9.71354 76.0693 10.1797V14H74.4053V10.4766C74.4079 10.1094 74.3141 9.82292 74.124 9.61719C73.9339 9.40885 73.6722 9.30469 73.3389 9.30469C73.1149 9.30469 72.917 9.35286 72.7451 9.44922C72.5758 9.54557 72.443 9.6862 72.3467 9.87109C72.2529 10.0534 72.2048 10.2734 72.2021 10.5313ZM87.0166 8.80078H85.3057C85.2744 8.57943 85.2106 8.38281 85.1143 8.21094C85.0179 8.03646 84.8942 7.88802 84.7432 7.76562C84.5921 7.64323 84.4176 7.54948 84.2197 7.48437C84.0244 7.41927 83.8122 7.38672 83.583 7.38672C83.1689 7.38672 82.8083 7.48958 82.501 7.69531C82.1937 7.89844 81.9554 8.19531 81.7861 8.58594C81.6169 8.97396 81.5322 9.44531 81.5322 10C81.5322 10.5703 81.6169 11.0495 81.7861 11.4375C81.958 11.8255 82.1976 12.1185 82.5049 12.3164C82.8122 12.5143 83.1676 12.6133 83.5713 12.6133C83.7979 12.6133 84.0075 12.5833 84.2002 12.5234C84.3955 12.4635 84.5687 12.3763 84.7197 12.2617C84.8708 12.1445 84.9958 12.0026 85.0947 11.8359C85.1963 11.6693 85.2666 11.4792 85.3057 11.2656L87.0166 11.2734C86.9723 11.6406 86.8617 11.9948 86.6846 12.3359C86.5101 12.6745 86.2744 12.9779 85.9775 13.2461C85.6833 13.5117 85.3317 13.7227 84.9229 13.8789C84.5166 14.0326 84.057 14.1094 83.5439 14.1094C82.8304 14.1094 82.1924 13.9479 81.6299 13.625C81.07 13.3021 80.6273 12.8346 80.3018 12.2227C79.9788 11.6107 79.8174 10.8698 79.8174 10C79.8174 9.1276 79.9814 8.38542 80.3096 7.77344C80.6377 7.16146 81.083 6.69531 81.6455 6.375C82.208 6.05208 82.8408 5.89062 83.5439 5.89062C84.0075 5.89062 84.4372 5.95573 84.833 6.08594C85.2314 6.21615 85.5843 6.40625 85.8916 6.65625C86.1989 6.90365 86.4489 7.20703 86.6416 7.56641C86.8369 7.92578 86.9619 8.33724 87.0166 8.80078ZM90.9092 14.1172C90.3024 14.1172 89.7777 13.9883 89.335 13.7305C88.8949 13.4701 88.555 13.1081 88.3154 12.6445C88.0758 12.1784 87.9561 11.638 87.9561 11.0234C87.9561 10.4036 88.0758 9.86198 88.3154 9.39844C88.555 8.93229 88.8949 8.57031 89.335 8.3125C89.7777 8.05208 90.3024 7.92188 90.9092 7.92188C91.516 7.92188 92.0394 8.05208 92.4795 8.3125C92.9222 8.57031 93.2633 8.93229 93.5029 9.39844C93.7425 9.86198 93.8623 10.4036 93.8623 11.0234C93.8623 11.638 93.7425 12.1784 93.5029 12.6445C93.2633 13.1081 92.9222 13.4701 92.4795 13.7305C92.0394 13.9883 91.516 14.1172 90.9092 14.1172ZM90.917 12.8281C91.193 12.8281 91.4235 12.75 91.6084 12.5938C91.7933 12.4349 91.9326 12.2187 92.0264 11.9453C92.1227 11.6719 92.1709 11.3607 92.1709 11.0117C92.1709 10.6628 92.1227 10.3516 92.0264 10.0781C91.9326 9.80469 91.7933 9.58854 91.6084 9.42969C91.4235 9.27083 91.193 9.19141 90.917 9.19141C90.6383 9.19141 90.404 9.27083 90.2139 9.42969C90.0264 9.58854 89.8844 9.80469 89.7881 10.0781C89.6943 10.3516 89.6475 10.6628 89.6475 11.0117C89.6475 11.3607 89.6943 11.6719 89.7881 11.9453C89.8844 12.2187 90.0264 12.4349 90.2139 12.5938C90.404 12.75 90.6383 12.8281 90.917 12.8281ZM96.6084 6V14H94.9443V6H96.6084ZM99.6523 14.1133C99.2695 14.1133 98.9284 14.0469 98.6289 13.9141C98.3294 13.7786 98.0924 13.5794 97.918 13.3164C97.7461 13.0508 97.6602 12.7201 97.6602 12.3242C97.6602 11.9909 97.7214 11.7109 97.8438 11.4844C97.9661 11.2578 98.1328 11.0755 98.3438 10.9375C98.5547 10.7995 98.7943 10.6953 99.0625 10.625C99.3333 10.5547 99.6172 10.5052 99.9141 10.4766C100.263 10.4401 100.544 10.4062 100.758 10.375C100.971 10.3411 101.126 10.2917 101.223 10.2266C101.319 10.1615 101.367 10.0651 101.367 9.9375V9.91406C101.367 9.66667 101.289 9.47526 101.133 9.33984C100.979 9.20443 100.76 9.13672 100.477 9.13672C100.177 9.13672 99.9388 9.20312 99.7617 9.33594C99.5846 9.46615 99.4674 9.63021 99.4102 9.82812L97.8711 9.70312C97.9492 9.33854 98.1029 9.02344 98.332 8.75781C98.5612 8.48958 98.8568 8.28385 99.2188 8.14062C99.5833 7.99479 100.005 7.92188 100.484 7.92188C100.818 7.92188 101.137 7.96094 101.441 8.03906C101.749 8.11719 102.021 8.23828 102.258 8.40234C102.497 8.56641 102.686 8.77734 102.824 9.03516C102.962 9.29036 103.031 9.59635 103.031 9.95312V14H101.453V13.168H101.406C101.31 13.3555 101.181 13.5208 101.02 13.6641C100.858 13.8047 100.664 13.9154 100.438 13.9961C100.211 14.0742 99.9492 14.1133 99.6523 14.1133ZM100.129 12.9648C100.374 12.9648 100.59 12.9167 100.777 12.8203C100.965 12.7214 101.112 12.5885 101.219 12.4219C101.326 12.2552 101.379 12.0664 101.379 11.8555V11.2188C101.327 11.2526 101.255 11.2839 101.164 11.3125C101.076 11.3385 100.975 11.3633 100.863 11.3867C100.751 11.4076 100.639 11.4271 100.527 11.4453C100.415 11.4609 100.314 11.4753 100.223 11.4883C100.027 11.5169 99.8568 11.5625 99.7109 11.625C99.5651 11.6875 99.4518 11.7721 99.3711 11.8789C99.2904 11.9831 99.25 12.1133 99.25 12.2695C99.25 12.4961 99.332 12.6693 99.4961 12.7891C99.6628 12.9062 99.8737 12.9648 100.129 12.9648ZM104.354 14V6H106.018V9.00781H106.068C106.141 8.84635 106.247 8.68229 106.385 8.51562C106.525 8.34635 106.708 8.20573 106.932 8.09375C107.158 7.97917 107.439 7.92188 107.775 7.92188C108.213 7.92188 108.617 8.03646 108.986 8.26563C109.356 8.49219 109.652 8.83464 109.873 9.29297C110.094 9.7487 110.205 10.3203 110.205 11.0078C110.205 11.6771 110.097 12.2422 109.881 12.7031C109.667 13.1615 109.376 13.5091 109.006 13.7461C108.639 13.9805 108.227 14.0977 107.771 14.0977C107.449 14.0977 107.174 14.0443 106.947 13.9375C106.723 13.8307 106.54 13.6966 106.396 13.5352C106.253 13.3711 106.144 13.2057 106.068 13.0391H105.994V14H104.354ZM105.982 11C105.982 11.3568 106.032 11.668 106.131 11.9336C106.23 12.1992 106.373 12.4062 106.561 12.5547C106.748 12.7005 106.976 12.7734 107.244 12.7734C107.515 12.7734 107.744 12.6992 107.932 12.5508C108.119 12.3997 108.261 12.1914 108.357 11.9258C108.456 11.6576 108.506 11.349 108.506 11C108.506 10.6536 108.458 10.349 108.361 10.0859C108.265 9.82292 108.123 9.61719 107.936 9.46875C107.748 9.32031 107.518 9.24609 107.244 9.24609C106.973 9.24609 106.744 9.31771 106.557 9.46094C106.372 9.60417 106.23 9.80729 106.131 10.0703C106.032 10.3333 105.982 10.6432 105.982 11Z" fill="white"/>
</g>
<defs>
<linearGradient id="paint0_linear_60972_9261" x1="0" y1="0" x2="0" y2="400" gradientUnits="userSpaceOnUse">
<stop stop-color="#BBBBBB" stop-opacity="0.1"/>
<stop offset="1" stop-opacity="0.1"/>
</linearGradient>
<clipPath id="clip0_60972_9261">
<rect width="117" height="20" fill="white"/>
</clipPath>
</defs>
</svg>
