<svg width="22" height="22" viewBox="0 0 22 22" fill="none" xmlns="http://www.w3.org/2000/svg">
<rect width="22" height="22" rx="4" fill="#99A559"/>
<path d="M7.1755 10.983C7.10998 11.0115 7.04732 11.0461 6.98836 11.0865L6.9694 11.102C6.96197 11.1068 6.95504 11.1122 6.9487 11.1184C5.70261 12.0876 5.03516 13.6502 5.39045 15.2162C5.59107 16.1143 6.09514 16.9157 6.81771 17.4854C7.54028 18.0551 8.43717 18.3583 9.35722 18.3439H9.49779C10.101 18.3182 10.6906 18.1563 11.2224 17.8705C11.7543 17.5847 12.2146 17.1823 12.569 16.6935C12.9234 16.2046 13.1626 15.642 13.2689 15.0477C13.3752 14.4533 13.3456 13.8426 13.1826 13.2613C13.023 12.6896 12.691 12.1627 12.4004 11.6487C11.8899 10.7461 11.3783 9.84383 10.8655 8.94182C10.7137 8.67536 10.5602 8.41062 10.4101 8.14415C10.2127 7.79232 9.90308 7.40944 9.8867 6.99206C9.87031 6.57469 10.2101 6.17197 10.6257 6.09178C11.4087 5.94259 11.7761 6.79114 11.7778 6.79027C11.8728 7.01747 12.0506 7.20011 12.2751 7.3013C12.4996 7.40248 12.7542 7.41466 12.9873 7.33538C13.2205 7.25609 13.4148 7.09125 13.5311 6.87417C13.6474 6.65709 13.6769 6.40396 13.6137 6.16594C13.422 5.53984 13.0215 4.99838 12.4789 4.63183C12.0018 4.29055 11.4269 4.11296 10.8405 4.12563C10.4305 4.12789 10.0256 4.21555 9.65141 4.38303C9.27725 4.55051 8.94211 4.79413 8.66735 5.09836C8.35511 5.44729 8.13138 5.86621 8.01507 6.31977C7.89875 6.77334 7.89325 7.24822 7.99903 7.70436C8.0413 7.87567 8.09902 8.04278 8.1715 8.20365C8.3776 8.67104 8.68028 9.09704 8.93554 9.53942C9.24886 10.0827 9.56218 10.6263 9.87549 11.1701C10.1888 11.714 10.505 12.2601 10.8241 12.8086C11.0828 13.2622 11.3648 13.6588 11.3932 14.2038C11.4052 14.4946 11.3569 14.7846 11.2513 15.0557C11.1458 15.3269 10.9852 15.5732 10.7798 15.7793C10.5744 15.9853 10.3286 16.1467 10.0578 16.2531C9.78695 16.3595 9.49706 16.4087 9.20631 16.3976C8.19737 16.3519 7.43592 15.6043 7.28243 14.6264C7.09012 13.3915 8.05164 12.7137 8.05164 12.7137C8.25425 12.5945 8.40679 12.4059 8.48099 12.1828C8.55519 11.9598 8.54603 11.7174 8.4552 11.5005C8.36436 11.2837 8.19801 11.1072 7.98698 11.0036C7.77594 10.9 7.53451 10.8765 7.30743 10.9373C7.26398 10.9495 7.22136 10.9645 7.17981 10.9821" fill="white"/>
<path d="M17.5168 14.3475C17.5171 13.999 17.4883 13.6511 17.4306 13.3075C17.3409 12.7654 17.1727 12.2393 16.9313 11.7458C16.7864 11.4517 16.6036 11.1577 16.3173 10.9973C16.1739 10.9165 16.012 10.8744 15.8475 10.8751C15.6829 10.8758 15.5214 10.9193 15.3787 11.0013C15.236 11.0833 15.1172 11.2011 15.0338 11.3429C14.9504 11.4848 14.9053 11.6459 14.9031 11.8105C14.8953 12.1735 15.0919 12.5003 15.2385 12.8349C15.4822 13.3926 15.5925 13.9994 15.5608 14.6071C15.5291 15.2148 15.3561 15.8068 15.0557 16.336C15.0373 16.3675 15.0208 16.4 15.0065 16.4335C14.9455 16.5758 14.9135 16.7288 14.9125 16.8836C14.9189 17.1057 15.0015 17.3188 15.1465 17.4871C15.2914 17.6554 15.4899 17.7688 15.7085 17.8081C16.244 17.9038 16.6691 17.5019 16.8942 17.0535C17.3079 16.2117 17.521 15.2855 17.5168 14.3475Z" fill="white"/>
<path d="M12.8004 7.97298C12.7827 7.97637 12.7651 7.98068 12.7478 7.98591C12.7125 7.99576 12.6808 8.0154 12.6562 8.04255C12.6316 8.0697 12.6152 8.10326 12.6089 8.13934C12.6025 8.17543 12.6066 8.21256 12.6205 8.24645C12.6344 8.28034 12.6576 8.3096 12.6874 8.33085C13.1261 8.66254 13.496 9.07639 13.7766 9.54934C13.8528 9.67924 13.9191 9.81473 13.9749 9.95464C14.0215 10.0754 14.0836 10.2332 14.2405 10.2246C14.363 10.2185 14.413 10.1142 14.4466 10.0098C14.6066 9.46725 14.6565 8.89815 14.5932 8.33602C14.5482 8.02976 14.4778 7.72777 14.3828 7.43315C14.3684 7.36181 14.3351 7.29567 14.2862 7.24171C14.2551 7.21349 14.2157 7.19613 14.1738 7.19224C14.132 7.18835 14.09 7.19814 14.0543 7.22015C14.0203 7.24765 13.9912 7.28058 13.968 7.31759C13.8243 7.51097 13.6397 7.67026 13.4273 7.78412C13.3203 7.84107 13.2075 7.88673 13.091 7.92037C12.9936 7.94883 12.8944 7.95314 12.8004 7.97298Z" fill="white"/>
</svg>
