<svg width="131" height="20" viewBox="0 0 131 20" fill="none" xmlns="http://www.w3.org/2000/svg">
<g clip-path="url(#clip0_9957_529)">
<path d="M131 0H0V20H131V0Z" fill="black"/>
<path d="M131 0H77V20H131V0Z" fill="#C4F042"/>
<path d="M84.542 5.99219C85.466 5.99219 86.192 6.17919 86.709 6.56419C87.259 6.97119 87.578 7.60919 87.655 8.46719H86.379C86.269 7.98319 86.06 7.63119 85.774 7.42219C85.488 7.20219 85.048 7.10319 84.476 7.10319C83.981 7.10319 83.607 7.16919 83.343 7.31219C83.013 7.47719 82.859 7.75219 82.859 8.12619C82.859 8.45619 83.035 8.73119 83.409 8.92919C83.574 9.01719 84.025 9.18219 84.751 9.41319C85.818 9.74319 86.5 10.0072 86.808 10.1832C87.49 10.5902 87.831 11.1512 87.831 11.8772C87.831 12.5812 87.556 13.1422 87.006 13.5492C86.456 13.9452 85.675 14.1542 84.674 14.1542C83.706 14.1542 82.947 13.9672 82.408 13.5932C81.748 13.1312 81.385 12.4052 81.33 11.4042H82.606C82.694 11.9982 82.903 12.4272 83.244 12.6802C83.552 12.9002 84.025 13.0212 84.674 13.0212C85.246 13.0212 85.708 12.9222 86.038 12.7352C86.368 12.5372 86.544 12.2842 86.544 11.9542C86.544 11.5362 86.291 11.2062 85.807 10.9642C85.653 10.8872 85.147 10.7112 84.278 10.4472C83.31 10.1392 82.705 9.91919 82.474 9.78719C81.869 9.42419 81.572 8.89619 81.572 8.20319C81.572 7.51019 81.858 6.96019 82.452 6.56419C83.002 6.17919 83.695 5.99219 84.542 5.99219ZM87.78 8.31319H89.166L90.299 12.5152L91.421 8.31319H92.576L93.698 12.5152L94.831 8.31319H96.217L94.303 14.0002H93.137L92.004 9.84219L90.86 14.0002H89.694L87.78 8.31319ZM99.0808 8.15919C99.9168 8.15919 100.544 8.36819 100.94 8.78619C101.292 9.14919 101.468 9.67719 101.468 10.3702V14.0002H100.302V13.2522C100.082 13.5382 99.8068 13.7472 99.4878 13.9012C99.1248 14.0662 98.6958 14.1542 98.2008 14.1542C97.6068 14.1542 97.1448 14.0002 96.8038 13.7032C96.4518 13.3952 96.2758 13.0102 96.2758 12.5372C96.2758 11.8992 96.5178 11.4042 97.0238 11.0632C97.4858 10.7332 98.1348 10.5572 98.9708 10.5352L100.214 10.5022V10.2822C100.214 9.53419 99.8068 9.17119 98.9928 9.17119C98.6408 9.17119 98.3658 9.22619 98.1568 9.35819C97.9148 9.50119 97.7498 9.72119 97.6838 10.0182L96.4408 9.91919C96.5618 9.29219 96.8698 8.83019 97.3648 8.54419C97.7828 8.28019 98.3548 8.15919 99.0808 8.15919ZM100.214 11.4042L99.0588 11.4372C98.0578 11.4592 97.5628 11.8112 97.5628 12.4932C97.5628 12.6912 97.6398 12.8562 97.8158 12.9882C97.9918 13.1202 98.2118 13.1972 98.4868 13.1972C98.9708 13.1972 99.3778 13.0542 99.7078 12.7792C100.038 12.4932 100.214 12.1302 100.214 11.6902V11.4042ZM105.288 8.15919C106.707 8.15919 107.422 8.92919 107.422 10.4912V14.0002H106.168V10.6012C106.168 9.66619 105.739 9.20419 104.881 9.20419C104.573 9.20419 104.298 9.31419 104.067 9.53419C103.803 9.77619 103.649 10.1282 103.605 10.5792V14.0002H102.351V8.31319H103.605V8.97319C103.825 8.70919 104.078 8.50019 104.353 8.36819C104.639 8.22519 104.947 8.15919 105.288 8.15919ZM108.412 6.14619H109.688V12.9002H113.934V14.0002H108.412V6.14619ZM116.957 8.15919C117.793 8.15919 118.42 8.36819 118.816 8.78619C119.168 9.14919 119.344 9.67719 119.344 10.3702V14.0002H118.178V13.2522C117.958 13.5382 117.683 13.7472 117.364 13.9012C117.001 14.0662 116.572 14.1542 116.077 14.1542C115.483 14.1542 115.021 14.0002 114.68 13.7032C114.328 13.3952 114.152 13.0102 114.152 12.5372C114.152 11.8992 114.394 11.4042 114.9 11.0632C115.362 10.7332 116.011 10.5572 116.847 10.5352L118.09 10.5022V10.2822C118.09 9.53419 117.683 9.17119 116.869 9.17119C116.517 9.17119 116.242 9.22619 116.033 9.35819C115.791 9.50119 115.626 9.72119 115.56 10.0182L114.317 9.91919C114.438 9.29219 114.746 8.83019 115.241 8.54419C115.659 8.28019 116.231 8.15919 116.957 8.15919ZM118.09 11.4042L116.935 11.4372C115.934 11.4592 115.439 11.8112 115.439 12.4932C115.439 12.6912 115.516 12.8562 115.692 12.9882C115.868 13.1202 116.088 13.1972 116.363 13.1972C116.847 13.1972 117.254 13.0542 117.584 12.7792C117.914 12.4932 118.09 12.1302 118.09 11.6902V11.4042ZM120.227 5.99219H121.481V9.09419C121.943 8.46719 122.515 8.15919 123.175 8.15919C123.989 8.15919 124.627 8.45619 125.1 9.05019C125.529 9.60019 125.749 10.2932 125.749 11.1292C125.749 11.9982 125.529 12.7132 125.089 13.2632C124.605 13.8572 123.945 14.1542 123.109 14.1542C122.361 14.1542 121.789 13.9012 121.393 13.3952V14.0002H120.227V5.99219ZM122.878 9.17119C122.471 9.17119 122.141 9.33619 121.877 9.66619C121.58 10.0182 121.437 10.5022 121.437 11.1072V11.1952C121.437 11.7452 121.547 12.2072 121.789 12.5592C122.053 12.9442 122.427 13.1422 122.922 13.1422C123.472 13.1422 123.879 12.9442 124.143 12.5482C124.352 12.2182 124.462 11.7452 124.462 11.1292C124.462 10.5132 124.341 10.0512 124.121 9.73219C123.857 9.35819 123.439 9.17119 122.878 9.17119Z" fill="#333333"/>
<path d="M6.86833 10.1111C6.81473 10.1344 6.76346 10.1627 6.71522 10.1957L6.6997 10.2084C6.69363 10.2123 6.68796 10.2168 6.68277 10.2219C5.66325 11.0149 5.11715 12.2934 5.40783 13.5746C5.57198 14.3094 5.9844 14.9651 6.5756 15.4312C7.16679 15.8974 7.90061 16.1455 8.65338 16.1337H8.76839C9.26193 16.1126 9.74431 15.9801 10.1795 15.7463C10.6146 15.5125 10.9912 15.1832 11.2812 14.7833C11.5711 14.3833 11.7669 13.923 11.8538 13.4367C11.9408 12.9504 11.9166 12.4508 11.7832 11.9752C11.6527 11.5074 11.381 11.0763 11.1433 10.6558C10.7256 9.91729 10.307 9.17904 9.88739 8.44103C9.76322 8.22302 9.63763 8.00641 9.51486 7.7884C9.35329 7.50053 9.09999 7.18727 9.08659 6.84578C9.07318 6.50429 9.35117 6.1748 9.69125 6.10918C10.3319 5.98712 10.6339 6.68068 10.6339 6.68068C10.7116 6.86656 10.857 7.016 11.0407 7.09879C11.2244 7.18158 11.4327 7.19154 11.6235 7.12667C11.8142 7.0618 11.9732 6.92693 12.0684 6.74932C12.1635 6.57171 12.1877 6.3646 12.136 6.16986C11.9791 5.65759 11.6514 5.21458 11.2075 4.91468C10.8171 4.63545 10.3468 4.49015 9.86693 4.50052C9.53154 4.50236 9.20021 4.57409 8.89408 4.71112C8.58795 4.84815 8.31374 5.04747 8.08894 5.29638C7.83347 5.58187 7.65042 5.92463 7.55525 6.29572C7.46008 6.66682 7.45558 7.05536 7.54213 7.42857C7.57671 7.56873 7.62394 7.70546 7.68324 7.83708C7.85187 8.21949 8.09952 8.56803 8.30836 8.92998C8.56472 9.37448 8.82107 9.81922 9.07742 10.2642C9.33377 10.7092 9.59247 11.156 9.85353 11.6047C10.0652 11.9759 10.2959 12.3004 10.3192 12.7463C10.329 12.9842 10.2895 13.2215 10.2031 13.4433C10.1167 13.6652 9.98538 13.8667 9.81731 14.0353C9.64924 14.2039 9.4481 14.3359 9.22654 14.423C9.00498 14.51 8.76779 14.5503 8.52991 14.5412C7.70441 14.5039 7.08141 13.8921 6.95582 13.092C6.79848 12.0817 7.58517 11.5271 7.58517 11.5271C7.75095 11.4296 7.87575 11.2753 7.93646 11.0928C7.99717 10.9103 7.98968 10.7119 7.91536 10.5345C7.84104 10.3571 7.70494 10.2127 7.53227 10.1279C7.3596 10.0432 7.16207 10.0239 6.97628 10.0737C6.94073 10.0837 6.90585 10.0959 6.87186 10.1104" fill="white"/>
<path d="M15.3301 12.8635C15.3304 12.5784 15.3067 12.2938 15.2596 12.0126C15.1862 11.5691 15.0486 11.1387 14.851 10.7349C14.7325 10.4943 14.5829 10.2537 14.3487 10.1225C14.2314 10.0563 14.0989 10.0219 13.9643 10.0225C13.8296 10.023 13.6975 10.0586 13.5808 10.1258C13.464 10.1929 13.3668 10.2892 13.2985 10.4053C13.2303 10.5213 13.1935 10.6532 13.1916 10.7878C13.1852 11.0848 13.3461 11.3522 13.466 11.626C13.6654 12.0823 13.7557 12.5787 13.7297 13.0759C13.7038 13.5732 13.5623 14.0575 13.3165 14.4905C13.3014 14.5162 13.288 14.5429 13.2763 14.5703C13.2263 14.6867 13.2001 14.8119 13.1993 14.9386C13.2046 15.1202 13.2722 15.2946 13.3907 15.4323C13.5093 15.57 13.6717 15.6628 13.8506 15.6949C14.2887 15.7732 14.6366 15.4444 14.8207 15.0776C15.1592 14.3888 15.3335 13.631 15.3301 12.8635Z" fill="white"/>
<path d="M11.4716 7.64923C11.4571 7.65201 11.4427 7.65554 11.4286 7.65982C11.3997 7.66788 11.3737 7.68394 11.3536 7.70616C11.3335 7.72837 11.32 7.75583 11.3149 7.78535C11.3097 7.81488 11.313 7.84526 11.3244 7.87299C11.3358 7.90071 11.3548 7.92465 11.3792 7.94204C11.7381 8.21342 12.0407 8.55203 12.2703 8.93898C12.3327 9.04527 12.3869 9.15612 12.4326 9.27059C12.4707 9.36937 12.5215 9.49849 12.6499 9.49143C12.7501 9.48649 12.791 9.40112 12.8185 9.31575C12.9494 8.87182 12.9902 8.40619 12.9384 7.94627C12.9016 7.6957 12.844 7.44861 12.7663 7.20756C12.7545 7.14919 12.7272 7.09507 12.6873 7.05092C12.6618 7.02783 12.6295 7.01363 12.5953 7.01045C12.5611 7.00727 12.5268 7.01528 12.4975 7.03328C12.4697 7.05579 12.4459 7.08273 12.4269 7.11301C12.3093 7.27123 12.1583 7.40156 11.9845 7.49472C11.8969 7.54131 11.8047 7.57867 11.7094 7.60619C11.6296 7.62948 11.5485 7.63301 11.4716 7.64923Z" fill="#EC4D4D"/>
<path d="M18.0551 6.14619H19.4521L21.6081 12.5482H21.6411L23.7971 6.14619H25.1941L22.4001 14.0002H20.8491L18.0551 6.14619ZM26.3181 5.99219C26.5601 5.99219 26.7691 6.06919 26.9341 6.22319C27.0881 6.37719 27.1761 6.57519 27.1761 6.81719C27.1761 7.05919 27.0881 7.26819 26.9231 7.42219C26.7581 7.57619 26.5601 7.65319 26.3181 7.65319C26.0761 7.65319 25.8781 7.57619 25.7131 7.42219C25.5481 7.25719 25.4711 7.05919 25.4711 6.81719C25.4711 6.57519 25.5481 6.37719 25.7131 6.22319C25.8781 6.06919 26.0761 5.99219 26.3181 5.99219ZM25.6911 8.31319H26.9451V14.0002H25.6911V8.31319ZM30.2054 8.15919C31.7014 8.15919 32.5264 8.75319 32.6584 9.96319H31.4374C31.3494 9.67719 31.2174 9.46819 31.0414 9.35819C30.8544 9.23719 30.5684 9.18219 30.1834 9.18219C29.8534 9.18219 29.6004 9.22619 29.4354 9.32519C29.2374 9.42419 29.1494 9.57819 29.1494 9.79819C29.1494 9.97419 29.2924 10.1392 29.6004 10.2712C29.7874 10.3482 30.1614 10.4582 30.7334 10.6012C31.3714 10.7552 31.8554 10.9312 32.1634 11.1402C32.6144 11.4262 32.8454 11.8332 32.8454 12.3392C32.8454 13.5492 31.9874 14.1542 30.2824 14.1542C28.6984 14.1542 27.8514 13.4832 27.7304 12.1522H28.9514C29.0174 12.5152 29.1494 12.7682 29.3364 12.9222C29.5234 13.0542 29.8204 13.1312 30.2384 13.1312C31.1184 13.1312 31.5584 12.8892 31.5584 12.4272C31.5584 12.1632 31.3934 11.9542 31.0634 11.8002C30.8874 11.7122 30.5134 11.6132 29.9414 11.4812C29.2704 11.3272 28.7974 11.1622 28.5224 10.9862C28.0824 10.7112 27.8624 10.3262 27.8624 9.83119C27.8624 9.30319 28.0714 8.89619 28.5114 8.61019C28.9404 8.30219 29.5014 8.15919 30.2054 8.15919ZM33.3997 8.31319H34.6537V11.7782C34.6537 12.2402 34.7417 12.5702 34.9397 12.7902C35.1377 12.9992 35.4457 13.1092 35.8857 13.1092C36.1607 13.1092 36.4247 12.9882 36.6777 12.7572C36.9307 12.5152 37.1177 12.1962 37.2277 11.7892V8.31319H38.4817V14.0002H37.2277V13.2632C36.7437 13.8572 36.1497 14.1542 35.4457 14.1542C34.0817 14.1542 33.3997 13.3842 33.3997 11.8552V8.31319ZM41.947 8.15919C42.783 8.15919 43.41 8.36819 43.806 8.78619C44.158 9.14919 44.334 9.67719 44.334 10.3702V14.0002H43.168V13.2522C42.948 13.5382 42.673 13.7472 42.354 13.9012C41.991 14.0662 41.562 14.1542 41.067 14.1542C40.473 14.1542 40.011 14.0002 39.67 13.7032C39.318 13.3952 39.142 13.0102 39.142 12.5372C39.142 11.8992 39.384 11.4042 39.89 11.0632C40.352 10.7332 41.001 10.5572 41.837 10.5352L43.08 10.5022V10.2822C43.08 9.53419 42.673 9.17119 41.859 9.17119C41.507 9.17119 41.232 9.22619 41.023 9.35819C40.781 9.50119 40.616 9.72119 40.55 10.0182L39.307 9.91919C39.428 9.29219 39.736 8.83019 40.231 8.54419C40.649 8.28019 41.221 8.15919 41.947 8.15919ZM43.08 11.4042L41.925 11.4372C40.924 11.4592 40.429 11.8112 40.429 12.4932C40.429 12.6912 40.506 12.8562 40.682 12.9882C40.858 13.1202 41.078 13.1972 41.353 13.1972C41.837 13.1972 42.244 13.0542 42.574 12.7792C42.904 12.4932 43.08 12.1302 43.08 11.6902V11.4042ZM45.3269 5.99219H46.5809V14.0002H45.3269V5.99219ZM48.4169 5.99219C48.6589 5.99219 48.8679 6.06919 49.0329 6.22319C49.1869 6.37719 49.2749 6.57519 49.2749 6.81719C49.2749 7.05919 49.1869 7.26819 49.0219 7.42219C48.8569 7.57619 48.6589 7.65319 48.4169 7.65319C48.1749 7.65319 47.9769 7.57619 47.8119 7.42219C47.6469 7.25719 47.5699 7.05919 47.5699 6.81719C47.5699 6.57519 47.6469 6.37719 47.8119 6.22319C47.9769 6.06919 48.1749 5.99219 48.4169 5.99219ZM47.7899 8.31319H49.0439V14.0002H47.7899V8.31319ZM49.8842 8.31319H54.6142V9.11619L51.4242 12.9772H54.7902V14.0002H49.7742V13.1532L52.9202 9.33619H49.8842V8.31319ZM57.7037 8.15919C58.6387 8.15919 59.3537 8.46719 59.8487 9.10519C60.2997 9.67719 60.5307 10.4802 60.5307 11.5032H56.2737C56.3177 12.0312 56.4607 12.4382 56.7027 12.7132C56.9447 12.9882 57.2967 13.1312 57.7477 13.1312C58.1327 13.1312 58.4407 13.0432 58.6827 12.8672C58.8697 12.7242 59.0347 12.4932 59.1887 12.1742H60.4427C60.3107 12.7022 60.0467 13.1532 59.6507 13.5052C59.1447 13.9342 58.5177 14.1542 57.7587 14.1542C56.9117 14.1542 56.2407 13.8902 55.7457 13.3732C55.2177 12.8342 54.9537 12.0972 54.9537 11.1512C54.9537 10.3042 55.1957 9.60019 55.7017 9.02819C56.1857 8.44519 56.8567 8.15919 57.7037 8.15919ZM57.7367 9.18219C57.3187 9.18219 56.9997 9.29219 56.7577 9.53419C56.5267 9.76519 56.3727 10.1062 56.2957 10.5572H59.2217C59.1117 9.63319 58.6167 9.18219 57.7367 9.18219ZM65.155 5.99219C65.397 5.99219 65.606 6.06919 65.771 6.22319C65.925 6.37719 66.013 6.57519 66.013 6.81719C66.013 7.05919 65.925 7.26819 65.76 7.42219C65.595 7.57619 65.397 7.65319 65.155 7.65319C64.913 7.65319 64.7149 7.57619 64.5499 7.42219C64.3849 7.25719 64.308 7.05919 64.308 6.81719C64.308 6.57519 64.3849 6.37719 64.5499 6.22319C64.7149 6.06919 64.913 5.99219 65.155 5.99219ZM64.528 8.31319H65.782V14.0002H64.528V8.31319ZM69.8342 8.15919C71.2532 8.15919 71.9682 8.92919 71.9682 10.4912V14.0002H70.7142V10.6012C70.7142 9.66619 70.2852 9.20419 69.4272 9.20419C69.1192 9.20419 68.8442 9.31419 68.6132 9.53419C68.3492 9.77619 68.1952 10.1282 68.1512 10.5792V14.0002H66.8972V8.31319H68.1512V8.97319C68.3712 8.70919 68.6242 8.50019 68.8992 8.36819C69.1852 8.22519 69.4932 8.15919 69.8342 8.15919Z" fill="white"/>
</g>
<defs>
<clipPath id="clip0_9957_529">
<rect width="131" height="20" fill="white"/>
</clipPath>
</defs>
</svg>
