<svg xmlns="http://www.w3.org/2000/svg" width="640" height="250" viewBox="-80 190 800 260" style="background:#fff">
<path d="M154.586 202.136C159.486 201.728 176.157 202.296 181.557 203.055C203.801 206.181 223.763 214.256 241.491 227.299C243.963 229.118 246.323 230.93 246.735 231.325C247.147 231.72 248.717 233.053 250.224 234.288C253.654 237.097 258.634 242.064 282.689 266.665C305.562 290.059 309.174 293.853 309.028 294.33C308.864 294.853 294.556 309.203 294.197 309.203C294.028 309.199 292.349 307.571 290.464 305.581C286.327 301.213 254.552 268.704 243.738 257.774C219.627 233.406 191.035 221.58 159.581 222.968C141.895 223.748 124.884 228.925 110.415 237.927C91.2339 249.862 76.1335 268.902 69.4993 289.517C66.205 299.753 64.9352 306.987 64.5941 317.462C64.0816 333.207 66.5008 346.178 72.4876 359.783C73.5534 362.205 74.4251 364.551 74.4251 364.997C74.4251 365.442 74.5621 365.67 74.7288 365.503C74.8956 365.337 75.7117 366.479 76.5423 368.042C77.373 369.605 79.1297 372.493 80.4466 374.459C81.7632 376.425 82.7078 378.166 82.5462 378.33C82.3834 378.492 82.4871 378.625 82.7767 378.625C83.0659 378.625 84.5569 380.177 86.0892 382.074C99.4708 398.635 121.076 411.552 142.073 415.541C167.678 420.407 189.881 417.505 212.326 406.362C218.412 403.341 227.361 397.584 232.835 393.17C236.192 390.464 253.784 372.891 270.924 355.122C274.752 351.155 284.641 340.964 292.9 332.476C301.159 323.988 308.565 316.346 309.358 315.495C310.151 314.644 315.096 309.557 320.346 304.192C325.597 298.826 338.095 286.02 348.121 275.735C389.55 233.235 390.488 232.343 401.313 225.081C424.211 209.716 448.108 202.299 474.927 202.234C487.644 202.203 495.121 203.012 505.697 205.562C514.437 207.669 530.417 213.607 530.419 214.747C530.419 214.938 530.812 215.125 531.293 215.163C533.504 215.334 547.189 223.995 553.394 229.15C558.492 233.385 566.295 241.383 570.587 246.772C582.607 261.863 590.333 278.286 594.081 296.716C600.466 328.102 593.782 361.809 576.079 387.501C564.518 404.281 549.569 417.272 531.714 426.055C517.541 433.027 505.094 436.568 488.604 438.318C459.116 441.447 427.963 433.709 403.061 417.072C393.459 410.656 389.891 407.543 375.092 392.662C357.67 375.144 330.943 347.769 330.773 347.27C330.708 347.073 333.991 343.43 338.067 339.175L345.477 331.441L356.413 342.67C390.621 377.795 402.519 389.723 406.819 393.199C421.619 405.163 438.482 412.769 458.249 416.395C464.614 417.563 487.12 417.735 492.711 416.66C511.361 413.072 526.174 406.424 539.534 395.65C575.006 367.043 585.235 317.086 564.067 275.846C562.001 271.822 559.492 267.399 558.49 266.016C555.507 261.902 550.429 255.696 547.703 252.832C544.232 249.186 534.7 241.246 531.381 239.237C529.891 238.334 528.161 237.208 527.536 236.734C526.067 235.618 517.87 231.633 513.189 229.758C502.408 225.442 488.592 222.806 476.726 222.801C455.927 222.793 436.777 228.075 419.46 238.597C409.458 244.674 403.609 249.803 385.76 268.152C376.49 277.681 364.743 289.749 359.656 294.968C354.568 300.187 346.693 308.279 342.155 312.949C320.154 335.588 316.23 339.618 307.15 348.912C301.783 354.403 289.984 366.521 280.929 375.838C252.143 405.457 249.169 408.223 237.143 416.555C208.2 436.61 169.139 443.813 134.359 435.509C127.074 433.77 115.805 430.093 116.133 429.563C116.256 429.361 115.621 429.077 114.722 428.931C112.331 428.543 103.347 424.055 103.728 423.439C103.911 423.142 103.805 423.072 103.478 423.274C102.759 423.718 99.6087 421.925 92.7884 417.188C89.5895 414.966 87.5576 413.237 87.7493 412.901C87.926 412.591 87.8911 412.5 87.6712 412.699C87.0464 413.264 83.7213 410.45 76.6517 403.374C66.685 393.399 61.07 385.526 54.9339 372.924C48.8538 360.439 45.0582 347.327 43.429 333.176C42.555 325.587 43.0784 309.14 44.4378 301.461C46.8362 287.914 51.4623 274.526 57.5081 263.638C77.2822 228.027 112.64 205.627 154.586 202.136ZM451.95 241.456C452.448 241.409 452.576 255.382 452.576 309.803V378.208H526.459L526.161 381.406C525.534 388.142 521.368 393.899 514.898 396.973L511.517 398.58L474.899 398.723C433.282 398.886 435.26 399.061 432.576 394.997C431.494 393.359 430.994 391.873 430.767 389.621C430.594 387.907 430.522 357.534 430.605 322.125L430.756 257.744L432.367 254.336C435.833 246.997 442.979 242.297 451.95 241.456ZM149.896 241.626C172.088 241.243 185.296 241.502 190.864 242.433C210.851 245.774 225.471 257.314 230.758 273.922C238.304 297.628 228.567 321.598 206.978 332.459C205.394 333.256 203.256 334.183 202.226 334.518C201.196 334.853 200.353 335.408 200.353 335.75C200.354 336.094 201.767 338.392 203.493 340.859C206.695 345.433 213.433 355.282 217.387 361.165C218.593 362.961 219.714 364.543 219.875 364.681C220.039 364.822 222.023 367.72 224.284 371.124L228.397 377.317L222.491 383.072C216.234 389.169 211.638 392.197 210.825 390.757C210.603 390.364 209.725 389.026 208.875 387.783C208.025 386.54 205.189 382.359 202.573 378.492C199.956 374.625 194.892 367.166 191.319 361.918C187.745 356.67 182.866 349.391 180.476 345.743L176.129 339.109L158.899 339.088L141.667 339.068V398.58L119.915 398.781L120.191 328.773L121.554 326.44C123.081 323.829 125.074 321.977 128.124 320.336C130.149 319.247 130.587 319.226 157.151 318.941C182.757 318.666 184.323 318.596 188.117 317.563C199.07 314.579 206.212 308.523 209.443 299.48C210.909 295.376 211.257 286.525 210.11 282.554C208.142 275.749 204.07 270.382 198.171 266.82C194.647 264.691 188.23 262.783 183.371 262.417C181.311 262.262 166.253 262.1 149.909 262.057L120.191 261.979L120.29 259.068C120.494 253.106 125.121 246.611 131.371 243.515L134.65 241.891L149.896 241.626Z" fill="url(#paint0_linear_1425_4509)"/>
<defs>
<linearGradient id="paint0_linear_1425_4509" x1="43" y1="439.236" x2="596.385" y2="201.999" gradientUnits="userSpaceOnUse">
<stop stop-color="#9F23EF"/>
<stop offset="0.5" stop-color="#0F90EE"/>
<stop offset="1" stop-color="#9F23EF"/>
</linearGradient>
</defs>
<script xmlns=""/></svg>